<?xml version="1.0" encoding="UTF-8"?>
<svg xmlns="http://www.w3.org/2000/svg" viewBox="0 0 383.56 74.93" role="img" aria-label="Infinity Ramper">
  <title>Infinity Ramper</title>
  <desc>Infinity Ramper logo: custom ribbed mark with "Infinity" in Funnel Display semibold and "Ramper" in Funnel Display light italic, on light backgrounds.</desc>
  <defs>
    <style>
      .ir-light { fill: #555; font-family: 'Funnel Display', 'Helvetica Neue', Arial, sans-serif; font-weight: 300; font-size: 40px; }
      .ir-bold  { fill: #0a0a0a; font-family: 'Funnel Display', 'Helvetica Neue', Arial, sans-serif; font-weight: 600; font-size: 40px; }
    </style>
  </defs>
  <text class="ir-bold" transform="translate(114.36 63.43)"><tspan letter-spacing="-0.04em" x="0" y="0">Infini</tspan><tspan letter-spacing="-0.06em" x="89.33" y="0">t</tspan><tspan letter-spacing="-0.04em" x="102.24" y="0">y</tspan></text>
  <text class="ir-light" transform="translate(239.03 63.93)"><tspan letter-spacing="-0.03em" x="0" y="0">R</tspan><tspan letter-spacing="-0.05em" x="26.51" y="0">a</tspan><tspan letter-spacing="-0.03em" x="47.01" y="0">mper</tspan></text>
  <path fill="#0a0a0a" d="M103.49,35.89c2.96,1.31,4.99,3.43,6.22,6.05v-6.81c0-6.13-4.97-11.1-11.1-11.1h-28.44c-5.94,0-10.78,4.67-11.07,10.54h-.03v.55s0,0,0,0v8.35s0,0,0-.01v11.81s0-.02,0-.03v8.33c0,.16.02.32.02.48v.26s.01,0,.01,0c.38,5.78,5.18,10.36,11.06,10.36h28.44c6.13,0,11.1-4.97,11.1-11.1v-6.83c-1.21,2.64-3.21,4.77-6.22,6.09-2.29,1-4.66,1.36-6.97,1.12v-4.77c1.77.31,3.66-.02,5.67-1.27,5.19-3.23,5.33-13.22.32-16.77-2.13-1.51-4.13-1.89-5.99-1.55v-4.84c2.32-.24,4.7.14,6.96,1.14ZM85.42,41.65l1.56-1.62v7.25c-.54.69-1.06,1.38-1.56,2.03v-7.66ZM84.65,56.29l-1.46-1.54v-10.78s1.47-1.54,1.47-1.54v13.85ZM85.42,49.38c.49.72,1.01,1.46,1.56,2.2v7.17s-1.56-1.64-1.56-1.64v-7.72ZM87.65,52.46c.53.68,1.08,1.35,1.65,1.98v6.51c-.57-.45-1.13-.96-1.66-1.51v-6.98ZM89.86,55.05c.57.59,1.15,1.15,1.76,1.66v5.75c-.6-.32-1.19-.68-1.76-1.09v-6.32ZM89.85,43.88v-6.51c.57-.42,1.16-.8,1.77-1.12v5.93c-.61.52-1.2,1.09-1.77,1.69ZM92.08,57.08c.6.46,1.22.87,1.86,1.2v5.15c-.63-.2-1.26-.44-1.87-.73v-5.62ZM92.09,41.8v-5.78c.6-.29,1.22-.53,1.84-.73v5.26c-.63.35-1.25.77-1.84,1.25ZM89.3,37.8v6.68c-.57.63-1.12,1.29-1.65,1.95v-7.1s.28-.28.28-.28c.44-.45.9-.86,1.37-1.25ZM75.34,45.11c-.34-.28-.68-.55-1.02-.8v-5.68c.35.15.69.32,1.02.5v5.98ZM76.56,39.85c.37.24.74.51,1.1.78v6.79c-.35-.42-.72-.81-1.1-1.19v-6.38ZM73.02,43.49c-.3-.17-.6-.32-.9-.45v-5.16c.31.08.6.16.9.26v5.36ZM73.03,55.11v5.46c-.3.1-.61.18-.92.26v-5.29c.32-.13.62-.28.92-.44ZM74.32,54.31c.35-.24.69-.51,1.03-.78v6.05c-.33.18-.67.35-1.03.5v-5.77ZM76.55,52.45c.39-.39.76-.8,1.12-1.22v6.86c-.36.28-.74.54-1.12.79v-6.43ZM78.75,49.81c.12-.17.24-.35.36-.52-.11-.17-.24-.33-.36-.49v-7.31c.41.36.82.73,1.23,1.11l.02,13.48c-.41.38-.82.76-1.24,1.11v-7.39ZM70.71,37.6v4.92c-.27-.07-.55-.13-.82-.17v-4.83c.28.02.55.04.82.08ZM66.07,42.9c-.21.1-.41.21-.61.34v-5.2c.2-.07.41-.13.62-.18v5.04ZM67.64,37.56c.24-.03.49-.05.74-.06v4.77c-.25.02-.5.05-.74.09v-4.8ZM63.75,44.88c-.2.31-.38.65-.53,1v-6.81c.17-.11.35-.2.53-.3v6.11ZM61.4,58.3c-.13-.12-.27-.25-.39-.38l.02-17.11c.12-.12.23-.24.35-.35l.02,17.84ZM63.22,52.46c.15.34.32.67.51.98v6.52c-.18-.09-.35-.19-.51-.29v-7.21ZM65.45,55.21c.11.07.21.15.32.22.09.05.19.09.29.13v5.32c-.21-.05-.41-.12-.61-.18v-5.48ZM67.66,56.12c.24.05.48.07.72.09v5.01c-.24-.01-.48-.02-.71-.05v-5.05ZM69.89,61.19v-5.02c.27-.04.55-.09.82-.15v5.09c-.07,0-.13.02-.2.03-.21.03-.41.04-.62.05ZM80.98,55.13v-11.54c.43.43.86.88,1.28,1.33l.08-.08v8.99s-.04-.03-.04-.03c-.44.45-.88.9-1.32,1.33ZM96.27,63.93c-.66-.08-1.32-.22-1.97-.4v-5.08c.63.3,1.29.53,1.97.67v4.8ZM96.25,39.65c-.68.15-1.33.4-1.97.72v-5.19c.64-.18,1.3-.32,1.97-.4v4.87Z"/>
</svg>
